<svg width="100" height="16" viewBox="0 0 100 16" fill="none" xmlns="http://www.w3.org/2000/svg">
<path d="M51.447 3.80005V5.91205H48.423V15.0001H46.215V5.91205H43.207V3.80005H51.447Z" fill="#403D7D"/>
<path d="M53.632 8.37605C54.048 7.28805 55.056 6.84005 56.064 6.84005V9.14405C54.992 9.01605 53.632 9.49605 53.632 11.1761V15.0001H51.568V7.00005H53.632V8.37605Z" fill="#403D7D"/>
<path d="M62.5512 7.00005H64.6152V15.0001H62.5512V14.1041C62.0712 14.8241 61.2392 15.2241 60.1672 15.2241C58.4712 15.2241 57.1432 14.0401 57.1432 11.9121V7.00005H59.2072V11.6561C59.2072 12.7441 59.8632 13.3041 60.7912 13.3041C61.7992 13.3041 62.5512 12.7121 62.5512 11.3201V7.00005Z" fill="#403D7D"/>
<path d="M68.347 9.27205C68.347 10.4561 72.475 9.72005 72.475 12.6641C72.475 14.3921 70.971 15.2241 69.259 15.2241C67.659 15.2241 66.475 14.5521 65.899 13.3201L67.691 12.312C67.915 12.9681 68.459 13.3521 69.259 13.3521C69.915 13.3521 70.363 13.1281 70.363 12.6641C70.363 11.4961 66.235 12.1361 66.235 9.32005C66.235 7.68805 67.627 6.77605 69.275 6.77605C70.571 6.77605 71.691 7.36805 72.315 8.47205L70.555 9.43205C70.315 8.92005 69.867 8.61605 69.275 8.61605C68.763 8.61605 68.347 8.84005 68.347 9.27205Z" fill="#403D7D"/>
<path d="M78.144 8.98405H76.336V12.312C76.336 13.176 76.96 13.1921 78.144 13.1281V15.0001C75.248 15.3201 74.272 14.4721 74.272 12.312V8.98405H72.88V7.00005H74.272V5.38405L76.336 4.76005V7.00005H78.144V8.98405Z" fill="#403D7D"/>
<path d="M82.5883 15.0001L78.8283 3.80005H81.2283L83.9643 12.4081L86.6843 3.80005H89.1003L85.3243 15.0001H82.5883Z" fill="#403D7D"/>
<path d="M94.9917 15.2241C91.5997 15.2241 89.1677 12.6641 89.1677 9.40005C89.1677 6.12005 91.5997 3.57605 94.9917 3.57605C97.0397 3.57605 98.8477 4.61605 99.8077 6.21605L97.9037 7.32005C97.3597 6.32805 96.2717 5.72005 94.9917 5.72005C92.7997 5.72005 91.3597 7.24005 91.3597 9.40005C91.3597 11.5441 92.7997 13.0641 94.9917 13.0641C96.2717 13.0641 97.3757 12.4561 97.9037 11.4801L99.8077 12.5841C98.8637 14.1841 97.0557 15.2241 94.9917 15.2241Z" fill="#403D7D"/>
<path d="M0 1C0 0.447715 0.447715 0 1 0H10.0858C10.351 0 10.6054 0.105357 10.7929 0.292893L14.1464 3.64645C14.4614 3.96143 15 3.73835 15 3.29289V1C15 0.447715 15.4477 0 16 0H19.5858C19.851 0 20.1054 0.105357 20.2929 0.292893L25.5639 5.56393C25.8418 5.84181 26.3236 5.70596 26.4545 5.33541C27.5521 2.22715 30.516 0 34 0H38C38.5523 0 39 0.447715 39 1V3.08579C39 3.351 38.8946 3.60536 38.7071 3.79289L33.7929 8.70711C33.6054 8.89464 33.351 9 33.0858 9L30.2071 9C29.7617 9 29.5386 9.53857 29.8536 9.85355L33.7071 13.7071C33.8946 13.8946 34 14.149 34 14.4142V15C34 15.5523 33.5523 16 33 16H24.9142C24.649 16 24.3946 15.8946 24.2071 15.7071L16.8536 8.35355C16.5386 8.03857 16 8.26165 16 8.70711V15C16 15.5523 15.5523 16 15 16H9C8.44772 16 8 15.5523 8 15V9C8 8.44772 7.55228 8 7 8H1C0.447715 8 0 7.55228 0 7V1Z" fill="url(#paint0_linear_5419_1286)"/>
<defs>
<linearGradient id="paint0_linear_5419_1286" x1="38.6779" y1="4.1891" x2="3.8752" y2="21.1972" gradientUnits="userSpaceOnUse">
<stop offset="0.15" stop-color="#8AD2EE"/>
<stop offset="0.85" stop-color="#686AD2"/>
</linearGradient>
</defs>
</svg>
