<svg width="16" height="16" viewBox="0 0 16 16" fill="none" xmlns="http://www.w3.org/2000/svg">
<path d="M0 4.99998C0 4.7734 0.183678 4.58972 0.410256 4.58972H4.13776C4.24657 4.58972 4.35092 4.63295 4.42785 4.70988L5.80367 6.0857C5.93289 6.21492 6.15385 6.1234 6.15385 5.94065V4.99998C6.15385 4.7734 6.33752 4.58972 6.5641 4.58972H8.03519C8.144 4.58972 8.24835 4.63294 8.32529 4.70988L10.4878 6.87236C10.6018 6.98636 10.7994 6.93063 10.8531 6.77861C11.3034 5.50342 12.5194 4.58972 13.9487 4.58972H15.5897C15.8163 4.58972 16 4.7734 16 4.99998V5.85569C16 5.96449 15.9568 6.06884 15.8798 6.14578L13.8638 8.16187C13.7868 8.23881 13.6825 8.28203 13.5737 8.28203L12.3927 8.28203C12.2099 8.28203 12.1184 8.50298 12.2476 8.63221L13.8286 10.2131C13.9055 10.2901 13.9487 10.3944 13.9487 10.5032V10.7436C13.9487 10.9701 13.765 11.1538 13.5385 11.1538H10.2212C10.1124 11.1538 10.0081 11.1106 9.93112 11.0337L6.91428 8.01682C6.78506 7.8876 6.5641 7.97912 6.5641 8.16187V10.7436C6.5641 10.9701 6.38042 11.1538 6.15385 11.1538H3.69231C3.46573 11.1538 3.28205 10.9701 3.28205 10.7436V8.28203C3.28205 8.05545 3.09837 7.87177 2.8718 7.87177H0.410256C0.183678 7.87177 0 7.68809 0 7.46152V4.99998Z" fill="url(#paint0_linear_5424_2529)"/>
<defs>
<linearGradient id="paint0_linear_5424_2529" x1="15.8678" y1="6.30833" x2="1.58983" y2="13.286" gradientUnits="userSpaceOnUse">
<stop offset="0.15" stop-color="#8AD2EE"/>
<stop offset="0.85" stop-color="#686AD2"/>
</linearGradient>
</defs>
</svg>
