<svg width="24" height="24" viewBox="0 0 24 24" fill="none" xmlns="http://www.w3.org/2000/svg">
<path d="M12 2.25C17.3848 2.25 21.75 6.61522 21.75 12C21.75 17.3848 17.3848 21.75 12 21.75C6.61522 21.75 2.25 17.3848 2.25 12C2.25 6.61522 6.61522 2.25 12 2.25ZM12 3.75C7.44365 3.75 3.75 7.44365 3.75 12C3.75 16.5563 7.44365 20.25 12 20.25C16.5563 20.25 20.25 16.5563 20.25 12C20.25 7.44365 16.5563 3.75 12 3.75ZM14.3896 9.31445C14.6303 8.97749 15.0985 8.89913 15.4355 9.13965C15.7725 9.38034 15.8509 9.84851 15.6104 10.1855L11.8604 15.4355C11.7322 15.6149 11.5312 15.7289 11.3115 15.7471C11.0919 15.7652 10.8755 15.6861 10.7197 15.5303L8.46973 13.2803C8.17683 12.9874 8.17683 12.5126 8.46973 12.2197C8.76262 11.9268 9.23738 11.9268 9.53027 12.2197L11.0713 13.7607C11.1149 13.8038 11.1868 13.7978 11.2227 13.748L14.3896 9.31445Z" fill="#0B384F"/>
</svg>
