<svg width="16" height="16" viewBox="0 0 16 16" fill="none" xmlns="http://www.w3.org/2000/svg">
<path d="M7.96777 1.25C11.6947 1.25026 14.7158 4.27206 14.7158 7.99902C14.7156 11.7258 11.6945 14.7468 7.96777 14.7471C4.24081 14.7471 1.21901 11.7259 1.21875 7.99902C1.21875 4.2719 4.24065 1.25 7.96777 1.25ZM8.93164 8.23535C9.19053 7.19959 8.11512 6.33645 7.16016 6.81348L7.13281 6.82812C6.76233 7.01337 6.61163 7.4635 6.79688 7.83398C6.91472 8.0696 7.14019 8.21445 7.38379 8.24219L7.00391 9.76172C6.74518 10.7976 7.82037 11.6601 8.77539 11.1826L8.80273 11.1689C9.17304 10.9836 9.32382 10.5325 9.13867 10.1621C9.02088 9.92661 8.79522 9.78077 8.55176 9.75293L8.93164 8.23535ZM7.96777 4.5C7.55356 4.5 7.21777 4.83579 7.21777 5.25V5.25488C7.21777 5.6691 7.55356 6.00488 7.96777 6.00488H7.97266C8.38675 6.00475 8.72266 5.66901 8.72266 5.25488V5.25C8.72266 4.83587 8.38675 4.50014 7.97266 4.5H7.96777Z" fill="#B83152"/>
</svg>
