<svg
  width="16"
  height="16"
  viewBox="0 0 16 16"
  fill="none"
  xmlns="http://www.w3.org/2000/svg"
>
  <path
    d="M13.7998 9.4502C14.2138 9.45031 14.5496 9.78619 14.5498 10.2002V11.7998C14.5498 13.3185 13.3185 14.5497 11.7998 14.5498H4.2002C2.68141 14.5498 1.4502 13.3186 1.4502 11.7998V10.2002C1.45035 9.78612 1.78608 9.4502 2.2002 9.4502C2.61421 9.45031 2.95004 9.78619 2.9502 10.2002V11.7998C2.9502 12.4902 3.50984 13.0498 4.2002 13.0498H11.7998C12.4901 13.0497 13.0498 12.4901 13.0498 11.7998V10.2002C13.05 9.78625 13.3859 9.45041 13.7998 9.4502ZM7.97949 1.4502C8.03269 1.45022 8.08471 1.45624 8.13477 1.4668C8.15779 1.47168 8.18074 1.47737 8.20312 1.48438L8.27148 1.50879C8.27453 1.51009 8.27725 1.51234 8.28027 1.51367C8.31854 1.53045 8.35556 1.55024 8.39062 1.57324C8.39379 1.57532 8.39726 1.57698 8.40039 1.5791C8.43602 1.60326 8.46869 1.63182 8.5 1.66211C8.50413 1.6661 8.50866 1.66974 8.5127 1.67383C8.51601 1.67718 8.52017 1.68017 8.52344 1.68359L11.9443 5.2832C12.2293 5.58333 12.2167 6.05843 11.917 6.34375C11.6168 6.62896 11.1418 6.61647 10.8564 6.31641L8.72949 4.07812V10.6006C8.72928 11.0145 8.39339 11.3504 7.97949 11.3506C7.56541 11.3506 7.2297 11.0146 7.22949 10.6006V4.09375L5.14746 6.31348C4.86405 6.61542 4.38894 6.62996 4.08691 6.34668C3.78534 6.06319 3.77048 5.58899 4.05371 5.28711L7.43262 1.68652L7.48828 1.63379C7.49897 1.62458 7.51133 1.61699 7.52246 1.6084C7.54119 1.59392 7.55999 1.57908 7.58008 1.56641C7.59978 1.55402 7.62089 1.5437 7.6416 1.5332C7.66185 1.52292 7.68186 1.51136 7.70312 1.50293C7.729 1.4927 7.7563 1.48584 7.7832 1.47852C7.80156 1.47353 7.81997 1.46745 7.83887 1.46387C7.84267 1.46315 7.84677 1.46258 7.85059 1.46191C7.89236 1.45469 7.93565 1.4502 7.97949 1.4502Z"
    fill="#ffffff"
  />
</svg>

